<svg height="512" viewBox="0 0 58 58" width="512" xmlns="http://www.w3.org/2000/svg"><g id="Page-1" fill="none" fill-rule="evenodd"><g id="072---Edit-Folder" fill-rule="nonzero"><path id="Rectangle-path" d="m45.05 26.05h10v5.799h-10z" fill="#95a5a5" transform="matrix(.707 .707 -.707 .707 35.13 -26.912)"/><path id="Shape" d="m0 49v-49h36c1.6568542 0 3 1.34314575 3 3v22.94c-.0009672.6951815.1818775 1.3782617.53 1.98l2.94 5.16c.3481225.6017383.5309672 1.2848185.53 1.98v10.94c0 1.6568542-1.3431458 3-3 3z" fill="#5d4c72"/><path id="Shape" d="m0 49 15.106 8.786c.6194868.3095595 1.3550292.276616 1.944362-.0870842s.9485761-1.0063915.949638-1.6989158v-11.424c.0001464-.3764929.1065594-.7452988.307-1.064l2.386-3.8c.2005295-.3179234.3069661-.6861178.307-1.062v-24.1c-.0000232-1.0943601-.5959526-2.1018832-1.555-2.629l-19.445-11.921z" fill="#7d6599"/><path id="Shape" d="m4 11c-.55228475 0-1-.4477153-1-1v-2c0-.55228475.44771525-1 1-1s1 .44771525 1 1v2c0 .5522847-.44771525 1-1 1z" fill="#b49aca"/><path id="Shape" d="m4 34c-.55228475 0-1-.4477153-1-1v-18c0-.5522847.44771525-1 1-1s1 .4477153 1 1v18c0 .5522847-.44771525 1-1 1z" fill="#b49aca"/><path id="Shape" d="m48.64 30.37-3.54-3.54-20.51 20.5 3.54 3.54 3.54 3.54 20.5-20.51z" fill="#3b97d3"/><path id="Shape" d="m52.17 33.9-20.5 20.51-3.54-3.54 12.73-12.73 7.78-7.77z" fill="#2980ba"/><path id="Shape" d="m31.67 54.41-5.87 2.2-3.39 1.27c-.3680509.1398584-.7839146.0507302-1.0623224-.2276776s-.367536-.6942715-.2276776-1.0623224l1.27-3.39 2.2-5.87z" fill="#fac176"/><path id="Shape" d="m51.5856122 22.4146493h4c1.6568543 0 3 1.3431457 3 3v3h-10v-3c0-1.6568543 1.3431458-3 3-3z" fill="#fb7b76" transform="matrix(.707 .707 -.707 .707 33.666 -30.447)"/><path id="Shape" d="m25.8 56.61-3.39 1.27c-.3680509.1398584-.7839146.0507302-1.0623224-.2276776s-.367536-.6942715-.2276776-1.0623224l1.27-3.39c1.6459328.4771833 2.9328167 1.7640672 3.41 3.41z" fill="#3f5c6c"/></g></g></svg>