<svg height="512pt" viewBox="-58 0 512 512" width="512pt" xmlns="http://www.w3.org/2000/svg"><path d="m369.167969 512h-343.300781c-14.285157 0-25.867188-11.582031-25.867188-25.867188v-460.265624c0-14.285157 11.582031-25.867188 25.867188-25.867188h343.300781c14.285156 0 25.867187 11.582031 25.867187 25.867188v460.265624c0 14.285157-11.582031 25.867188-25.867187 25.867188zm0 0" fill="#eaa94c"/><path d="m369.167969 0h-30.664063c.027344.492188.042969.988281.042969 1.488281v460.261719c0 14.285156-11.582031 25.867188-25.867187 25.867188h-312.632813c.769531 13.597656 12.035156 24.382812 25.820313 24.382812h343.300781c14.285156 0 25.867187-11.582031 25.867187-25.867188v-460.265624c0-14.285157-11.582031-25.867188-25.867187-25.867188zm0 0" fill="#c16e00"/><path d="m369.167969 0h-343.300781c-8.769532 0-16.519532 4.363281-21.199219 11.039062l30.339843 71.742188c4.335938 10.25 14.382813 16.910156 25.511719 16.910156h273.996094c11.128906 0 21.175781-6.660156 25.511719-16.910156l30.339844-71.742188c-4.679688-6.675781-12.429688-11.039062-21.199219-11.039062zm0 0" fill="#c78022"/><path d="m369.167969 0h-29.703125l-42.160156 99.691406h37.210937c11.128906 0 21.175781-6.660156 25.511719-16.910156l30.335937-71.742188c-4.675781-6.675781-12.425781-11.039062-21.195312-11.039062zm0 0" fill="#b5701f"/><path d="m211.898438 174.230469c-4.265626 0-7.726563-3.460938-7.726563-7.726563v-113.175781c0-4.265625 3.460937-7.726563 7.726563-7.726563 4.265624 0 7.726562 3.460938 7.726562 7.726563v113.175781c0 4.265625-3.460938 7.726563-7.726562 7.726563zm0 0" fill="#263677"/><path d="m183.609375 174.882812c-4.265625 0-7.722656-3.460937-7.722656-7.726562v-113.828125c0-4.265625 3.457031-7.726563 7.722656-7.726563 4.269531 0 7.726563 3.460938 7.726563 7.726563v113.824219c0 4.269531-3.457032 7.730468-7.726563 7.730468zm0 0" fill="#263677"/><path d="m100.996094 476.289062h-52.117188c-6.941406 0-12.570312-5.628906-12.570312-12.570312v-141.394531c0-6.941407 5.628906-12.566407 12.570312-12.566407h52.117188c6.941406 0 12.570312 5.625 12.570312 12.566407v141.394531c0 6.941406-5.628906 12.570312-12.570312 12.570312zm0 0" fill="#fafaff"/><path d="m100.996094 309.753906h-43.917969v166.53125h43.917969c6.941406 0 12.570312-5.625 12.570312-12.566406v-141.394531c0-6.941407-5.628906-12.570313-12.570312-12.570313zm0 0" fill="#e6e6f2"/><path d="m219.921875 53.328125c0 12.375-10.03125 22.40625-22.402344 22.40625-12.375 0-22.40625-10.03125-22.40625-22.40625s10.03125-22.402344 22.40625-22.402344c12.371094 0 22.402344 10.027344 22.402344 22.402344zm0 0" fill="#ffe591"/><path d="m219.921875 167.152344c0 12.375-10.03125 22.40625-22.402344 22.40625-12.375 0-22.40625-10.03125-22.40625-22.40625 0-12.371094 10.03125-22.402344 22.40625-22.402344 12.371094 0 22.402344 10.03125 22.402344 22.402344zm0 0" fill="#ff7e7e"/></svg>